<?xml version="1.0" encoding="iso-8859-1"?>
<!-- Generator: Adobe Illustrator 19.0.0, SVG Export Plug-In . SVG Version: 6.00 Build 0)  -->
<svg version="1.1" id="Layer_1" xmlns="http://www.w3.org/2000/svg" xmlns:xlink="http://www.w3.org/1999/xlink" x="0px" y="0px"
	 viewBox="0 0 392.857 392.857" style="enable-background:new 0 0 392.857 392.857;" xml:space="preserve">
<path style="fill:#FFC10D;" d="M370.812,172.251v55.596H268.024v-18.23h13.834c6.012,0,10.925-4.848,10.925-10.925
	s-4.848-10.925-10.925-10.925h-13.834V165.98h35.685c6.012,0,10.925-4.848,10.925-10.925c0-6.012-4.848-10.925-10.925-10.925h-35.62
	v-41.244h42.731L370.812,172.251z"/>
<polyline style="fill:#56ACE0;" points="370.747,305.034 370.747,249.762 21.851,249.762 21.851,305.034 "/>
<rect x="21.851" y="51.556" style="fill:#FFFFFF;" width="224.388" height="176.356"/>
<rect x="43.636" y="73.341" style="fill:#56ACE0;" width="180.816" height="132.784"/>
<g>
	<path style="fill:#FFC10D;" d="M94.901,290.295c-14.158,0-25.6,11.507-25.6,25.6c0,14.158,11.507,25.665,25.6,25.665
		s25.665-11.507,25.665-25.665C120.501,301.802,108.994,290.295,94.901,290.295z"/>
	<path style="fill:#FFC10D;" d="M329.244,315.96c0-14.158-11.507-25.6-25.6-25.6c-14.158,0-25.665,11.507-25.665,25.6
		c0,14.158,11.507,25.665,25.665,25.665C317.802,341.56,329.244,330.117,329.244,315.96z"/>
</g>
<g>
	<path style="fill:#194F82;" d="M389.947,161.196l-65.939-76.218c-2.069-2.392-5.107-3.814-8.275-3.814H267.96V40.501
		c0-6.012-4.848-10.925-10.925-10.925H10.925C4.913,29.576,0,34.424,0,40.501V315.83c0,6.012,4.848,10.925,10.925,10.925h37.883
		c4.978,20.945,23.725,36.525,46.158,36.525s41.18-15.58,46.158-36.525h116.558c4.913,20.945,23.725,36.525,46.158,36.525
		c22.432,0,41.18-15.58,46.158-36.525h31.935c6.012,0,10.925-4.848,10.925-10.925V168.307
		C392.598,165.657,391.693,163.135,389.947,161.196z M21.851,51.426h224.388v176.356H21.851V51.426z M94.966,341.56
		c-14.158,0-25.665-11.507-25.665-25.665s11.507-25.6,25.665-25.6s25.6,11.507,25.6,25.6
		C120.63,329.988,109.059,341.56,94.966,341.56z M303.709,341.56c-14.158,0-25.665-11.507-25.665-25.665s11.507-25.6,25.665-25.6
		c14.158,0,25.6,11.507,25.6,25.6C329.309,329.988,317.802,341.56,303.709,341.56z M370.812,304.97h-21.01
		c-4.978-20.945-23.725-36.525-46.158-36.525s-41.18,15.58-46.158,36.525H141.059c-4.913-20.945-23.725-36.525-46.158-36.525
		s-41.18,15.58-46.158,36.525H21.851v-55.337h235.313h113.584v55.337H370.812z M370.812,227.846H268.024v-18.23h13.834
		c6.012,0,10.925-4.848,10.925-10.925s-4.848-10.925-10.925-10.925h-13.834V165.98h35.685c6.012,0,10.925-4.848,10.925-10.925
		c0-6.012-4.848-10.925-10.925-10.925h-35.62v-41.244h42.731l59.992,69.366V227.846z"/>
	<path style="fill:#194F82;" d="M175.838,72.566c-4.267-4.267-11.119-4.267-15.451,0c-4.267,4.267-4.267,11.119,0,15.451
		l7.952,7.952h-54.562c-6.012,0-10.925,4.848-10.925,10.925c0,6.012,4.848,10.925,10.925,10.925h54.562l-7.952,7.952
		c-4.267,4.267-4.267,11.119,0,15.451c4.331,4.331,11.378,4.073,15.451,0l26.505-26.57c4.267-4.267,4.267-11.119,0-15.451
		L175.838,72.566z"/>
	<path style="fill:#194F82;" d="M154.311,161.584H99.749l7.952-7.952c4.267-4.267,4.267-11.119,0-15.451
		c-4.331-4.331-11.378-4.073-15.451,0l-26.57,26.634c-4.267,4.267-4.267,11.119,0,15.451l26.505,26.505
		c4.267,4.267,11.119,4.267,15.451,0c4.267-4.267,4.267-11.119,0-15.451l-7.887-7.887h54.562c6.012,0,10.925-4.848,10.925-10.925
		C165.236,166.432,160.323,161.584,154.311,161.584z"/>
</g>
<g>
</g>
<g>
</g>
<g>
</g>
<g>
</g>
<g>
</g>
<g>
</g>
<g>
</g>
<g>
</g>
<g>
</g>
<g>
</g>
<g>
</g>
<g>
</g>
<g>
</g>
<g>
</g>
<g>
</g>
</svg>
