<?xml version="1.0" encoding="iso-8859-1"?>
<!-- Generator: Adobe Illustrator 19.0.0, SVG Export Plug-In . SVG Version: 6.00 Build 0)  -->
<svg version="1.1" id="Layer_1" xmlns="http://www.w3.org/2000/svg" xmlns:xlink="http://www.w3.org/1999/xlink" x="0px" y="0px"
	 viewBox="0 0 469.333 469.333" style="enable-background:new 0 0 469.333 469.333;" xml:space="preserve">
<path style="fill:#FFFFFF;" d="M458.667,234.667h-128V128h106.667c11.787,0,21.333,9.547,21.333,21.333V234.667z"/>
<path style="fill:#D94452;" d="M437.333,330.667H330.667v-96h128v74.667C458.667,321.12,449.12,330.667,437.333,330.667z"/>
<path style="fill:#F5B945;" d="M330.667,288H32V64c0-11.787,9.547-21.333,21.333-21.333h256c11.787,0,21.333,9.547,21.333,21.333
	V288z"/>
<g>
	<circle style="fill:#FFFFFF;" cx="74.667" cy="373.333" r="42.667"/>
	<circle style="fill:#FFFFFF;" cx="181.333" cy="373.333" r="42.667"/>
	<circle style="fill:#FFFFFF;" cx="384" cy="373.333" r="42.667"/>
</g>
<rect x="149.333" y="42.667" style="fill:#F7C76A;" width="85.333" height="74.667"/>
<path d="M117.333,213.333H74.667c-5.888,0-10.667-4.779-10.667-10.667l0,0C64,196.779,68.779,192,74.667,192h42.667
	c5.888,0,10.667,4.779,10.667,10.667l0,0C128,208.555,123.221,213.333,117.333,213.333z"/>
<path d="M117.333,170.667H74.667C68.779,170.667,64,165.888,64,160l0,0c0-5.888,4.779-10.667,10.667-10.667h42.667
	c5.888,0,10.667,4.779,10.667,10.667l0,0C128,165.888,123.221,170.667,117.333,170.667z"/>
<path d="M160,256H74.667C68.779,256,64,251.221,64,245.333l0,0c0-5.888,4.779-10.667,10.667-10.667H160
	c5.888,0,10.667,4.779,10.667,10.667l0,0C170.667,251.221,165.888,256,160,256z"/>
<g>
	<path style="fill:#D94452;" d="M426.667,128h-96V74.667h74.667c11.787,0,21.333,9.547,21.333,21.333V128z"/>
	<path style="fill:#D94452;" d="M330.667,330.667H32c-11.787,0-21.333-9.547-21.333-21.333l0,0C10.667,297.547,20.213,288,32,288
		h298.667V330.667z"/>
</g>
<path d="M245.333,149.333v48c0,12.896,9.163,23.659,21.333,26.133v21.867h-5.333c-2.944,0-5.333,2.389-5.333,5.333
	s2.389,5.333,5.333,5.333h5.333h10.667h5.333c2.944,0,5.333-2.389,5.333-5.333s-2.389-5.333-5.333-5.333h-5.333v-21.867
	c12.171-2.475,21.333-13.227,21.333-26.133v-48H245.333z"/>
<path d="M437.333,117.333V96c0-17.643-14.357-32-32-32h-64c0-17.643-14.357-32-32-32h-74.667h-85.333h-96c-17.643,0-32,14.357-32,32
	v215.296C8.949,283.712,0,295.445,0,309.333c0,17.643,14.357,32,32,32h0.277c-6.773,8.939-10.944,19.947-10.944,32
	c0,17.504,8.597,32.939,21.664,42.667H10.667C4.768,416,0,420.768,0,426.667s4.768,10.667,10.667,10.667h448
	c5.899,0,10.667-4.768,10.667-10.667S464.565,416,458.667,416h-42.997c13.067-9.728,21.664-25.163,21.664-42.667
	c0-12.053-4.171-23.061-10.944-32h10.944c17.643,0,32-14.357,32-32v-74.667v-85.333
	C469.333,131.691,454.976,117.333,437.333,117.333z M448,149.333V224h-21.333v-21.333c0-5.899-4.768-10.667-10.667-10.667h-21.333
	c-5.899,0-10.667,4.768-10.667,10.667s4.768,10.667,10.667,10.667h10.667V224h-64v-85.333h85.333h10.667
	C443.221,138.667,448,143.445,448,149.333z M405.333,85.333C411.221,85.333,416,90.112,416,96v21.333h-74.667v-32H405.333z
	 M224,53.333v53.333h-64V53.333H224z M42.667,64c0-5.888,4.779-10.667,10.667-10.667h85.333v64c0,5.899,4.768,10.667,10.667,10.667
	h85.333c5.899,0,10.667-4.768,10.667-10.667v-64h64C315.221,53.333,320,58.112,320,64v10.667V128v106.667v42.667H42.667V64z
	 M21.333,309.333c0-5.888,4.779-10.667,10.667-10.667h288V320H32C26.112,320,21.333,315.221,21.333,309.333z M213.333,373.333
	c0,17.643-14.357,32-32,32s-32-14.357-32-32s14.357-32,32-32S213.333,355.691,213.333,373.333z M74.667,341.333
	c17.643,0,32,14.357,32,32s-14.357,32-32,32s-32-14.357-32-32S57.024,341.333,74.667,341.333z M128,373.333
	c0-12.053-4.171-23.061-10.944-32h21.877C132.171,350.272,128,361.28,128,373.333c0,17.504,8.597,32.939,21.664,42.667h-43.328
	C119.403,406.272,128,390.837,128,373.333z M213.003,416c13.067-9.728,21.664-25.163,21.664-42.667c0-12.053-4.171-23.061-10.944-32
	h106.944h10.944c-6.773,8.939-10.944,19.947-10.944,32c0,17.504,8.597,32.939,21.664,42.667H213.003z M416,373.333
	c0,17.643-14.357,32-32,32c-17.643,0-32-14.357-32-32s14.357-32,32-32C401.643,341.333,416,355.691,416,373.333z M448,309.333
	c0,5.888-4.779,10.667-10.667,10.667h-96v-32v-42.667H448V309.333z"/>
<circle cx="384" cy="373.333" r="10.667"/>
<circle cx="74.667" cy="373.333" r="10.667"/>
<circle cx="181.333" cy="373.333" r="10.667"/>
<path d="M365.792,259.125l-10.667,10.667c-4.171,4.171-4.171,10.912,0,15.083c2.08,2.08,4.811,3.125,7.541,3.125
	c2.731,0,5.461-1.045,7.541-3.125l10.667-10.667c4.171-4.171,4.171-10.912,0-15.083
	C376.704,254.955,369.963,254.955,365.792,259.125z"/>
<g>
</g>
<g>
</g>
<g>
</g>
<g>
</g>
<g>
</g>
<g>
</g>
<g>
</g>
<g>
</g>
<g>
</g>
<g>
</g>
<g>
</g>
<g>
</g>
<g>
</g>
<g>
</g>
<g>
</g>
</svg>
