<?xml version="1.0" standalone="no"?>
<!DOCTYPE svg PUBLIC "-//W3C//DTD SVG 20010904//EN"
 "http://www.w3.org/TR/2001/REC-SVG-20010904/DTD/svg10.dtd">
<svg version="1.0" xmlns="http://www.w3.org/2000/svg"
 width="640.000000pt" height="360.000000pt" viewBox="0 0 640.000000 360.000000"
 preserveAspectRatio="xMidYMid meet">
<metadata>
Created by potrace 1.16, written by Peter Selinger 2001-2019
</metadata>
<g transform="translate(0.000000,360.000000) scale(0.100000,-0.100000)"
fill="#000000" stroke="none">
<path d="M0 3488 c0 -62 4 -108 8 -103 4 6 12 10 17 10 16 1 127 16 160 21 51
9 59 11 79 19 11 5 27 3 39 -4 16 -10 21 -10 28 1 6 10 17 4 46 -25 31 -33 41
-38 67 -33 17 3 39 15 48 26 12 15 33 22 75 26 31 3 62 9 68 14 6 5 29 7 52 5
30 -3 43 0 47 10 6 17 36 21 36 5 0 -5 -6 -10 -12 -10 -7 0 -2 -6 12 -13 14
-6 34 -31 45 -53 18 -37 23 -41 47 -37 21 4 34 -2 59 -27 20 -19 39 -30 50
-27 9 3 39 0 66 -5 83 -17 123 -7 123 32 0 23 51 36 80 20 11 -6 30 -8 40 -5
11 4 25 3 32 -1 7 -5 23 -8 37 -8 13 -1 29 -9 35 -18 9 -14 7 -21 -11 -33 -12
-8 -31 -31 -43 -50 -25 -40 -77 -70 -95 -55 -7 6 -61 9 -134 7 -92 -3 -121 -1
-121 8 0 7 7 16 16 19 13 5 11 11 -13 40 -22 27 -36 35 -63 35 -19 1 -48 8
-64 16 -32 17 -91 20 -81 5 3 -5 1 -10 -5 -10 -6 0 -8 -5 -4 -12 4 -7 3 -8 -5
-4 -6 4 -9 12 -6 17 9 14 -12 11 -27 -4 -8 -8 -25 -10 -43 -7 -18 4 -39 0 -52
-8 -12 -7 -28 -10 -34 -6 -9 5 -10 1 -7 -14 5 -18 2 -22 -19 -22 -14 0 -40 -9
-58 -20 l-33 -21 -7 31 c-7 31 -42 62 -85 75 -14 4 -28 13 -33 19 -5 7 -11 5
-18 -7 -8 -13 -14 -15 -29 -7 -24 13 -101 5 -115 -12 -10 -14 -39 -17 -50 -6
-4 3 -18 0 -33 -8 -35 -18 -47 -18 -68 3 -13 13 -19 14 -22 5 -2 -7 -8 -10
-13 -6 -5 3 -9 -209 -9 -530 l0 -536 103 -2 c56 -1 116 -2 132 -1 159 3 271 2
324 -3 42 -5 103 -1 180 10 180 27 210 39 214 85 0 11 5 17 10 14 10 -6 2 -42
-18 -88 -7 -16 -18 -44 -25 -61 -6 -17 -22 -36 -36 -43 -32 -14 -41 -41 -43
-128 -2 -63 1 -74 18 -85 26 -16 26 -24 0 -31 -17 -5 -20 -12 -17 -54 3 -44 5
-48 31 -51 27 -3 27 -4 27 -76 0 -92 -10 -167 -21 -160 -5 3 -8 35 -6 72 5 78
1 92 -22 92 -10 0 -21 3 -25 8 -4 4 -47 8 -94 9 -233 4 -314 7 -277 10 22 3
44 8 48 12 10 10 -120 21 -341 30 l-162 6 0 -432 c0 -406 1 -433 18 -433 17 0
740 75 817 85 30 4 35 3 20 -4 -11 -6 -198 -28 -415 -51 -217 -22 -405 -43
-417 -45 -21 -5 -23 -11 -23 -75 0 -39 1 -70 3 -70 1 0 190 27 420 60 415 60
455 65 445 55 -4 -5 -332 -59 -693 -115 -72 -11 -140 -23 -153 -25 -22 -5 -22
-7 -22 -173 l0 -168 168 43 c92 23 178 42 192 42 47 0 -1 -15 -182 -60 l-178
-43 0 -183 0 -183 891 0 891 0 172 116 c662 447 1258 854 1296 884 23 18 23
20 5 18 -11 0 -37 0 -57 0 -29 2 -36 5 -32 17 4 8 17 18 30 21 21 5 24 12 24
50 0 37 -3 44 -20 44 -11 0 -20 5 -20 10 0 6 6 10 13 10 8 0 22 10 33 22 17
19 17 21 2 15 -12 -4 -18 -1 -18 8 0 8 -8 19 -17 25 -15 9 -15 11 -2 7 9 -3
29 1 43 8 15 8 77 17 144 21 64 4 124 10 133 15 10 5 14 18 11 42 -4 39 8 46
93 48 l50 2 -50 7 c-72 10 -158 -3 -117 -17 16 -6 15 -20 -3 -27 -8 -3 -14 -2
-14 2 3 19 -2 23 -16 12 -9 -7 -27 -14 -41 -16 -24 -2 -26 0 -20 28 3 17 6 41
6 55 0 14 4 21 10 18 6 -3 10 4 9 17 0 13 -3 17 -6 11 -2 -7 -14 -13 -25 -13
-11 0 -18 -5 -16 -12 4 -11 -14 -38 -24 -38 -2 0 -2 15 0 34 3 26 -1 37 -18
49 -11 8 -22 27 -24 42 -2 15 -9 30 -16 35 -7 4 -10 14 -8 21 5 14 -21 49 -35
49 -5 0 -4 -7 3 -15 15 -18 -1 -20 -19 -2 -11 10 -12 -14 -9 -135 4 -135 3
-148 -13 -148 -10 0 -20 6 -22 13 -4 9 -6 9 -6 0 -1 -7 -6 -13 -12 -13 -5 0
-7 5 -3 11 4 8 -1 9 -16 4 -14 -4 -25 -2 -30 5 -5 8 -32 13 -72 14 -62 1 -63
1 -69 -29 -6 -26 -6 -25 -4 7 3 34 1 36 -16 25 -10 -6 -20 -23 -22 -37 -4 -25
-4 -25 -6 3 0 17 -7 27 -16 27 -14 0 -20 -26 -18 -78 1 -6 -3 -12 -9 -12 -12
0 -3 79 11 93 17 17 13 27 -9 27 -13 0 -18 -5 -14 -15 4 -8 2 -15 -4 -15 -5 0
-12 9 -15 20 -4 16 -14 20 -49 21 -23 0 -59 2 -78 5 -19 2 -46 0 -61 -5 l-26
-9 -6 107 c-14 226 -20 961 -9 961 12 0 395 -399 487 -508 59 -70 75 -80 83
-51 2 10 1 11 -5 2 -6 -9 -36 19 -99 90 -165 186 -436 472 -450 475 -15 4 -37
72 -36 115 1 24 -3 27 -36 28 -20 1 -40 1 -44 0 -3 0 -50 -4 -103 -7 -106 -8
-137 -22 -47 -22 76 0 110 -14 118 -49 3 -15 8 -37 11 -48 5 -18 4 -18 -11 -6
-22 18 -26 12 -9 -19 7 -14 13 -18 13 -10 0 8 3 10 9 5 5 -6 11 -39 15 -75 11
-131 19 -170 32 -170 7 0 15 6 17 13 3 7 6 3 8 -8 1 -11 5 3 9 30 5 36 8 12
10 -90 1 -77 4 -152 6 -167 1 -16 -1 -28 -7 -28 -11 0 -11 0 -9 112 1 77 -1
89 -21 109 l-22 22 6 -124 c4 -68 11 -194 16 -279 18 -275 23 -510 11 -510 -5
0 -10 5 -10 10 0 21 -20 9 -21 -12 0 -22 -1 -22 -9 -3 -5 11 -9 36 -9 55 -1
43 -11 80 -20 80 -4 0 -6 -14 -3 -30 4 -29 3 -30 -32 -30 -20 0 -36 5 -36 10
0 6 -7 10 -16 10 -8 0 -12 -4 -9 -10 8 -14 -123 -4 -141 11 -8 6 -12 15 -9 19
3 5 1 11 -5 15 -5 3 -10 33 -10 66 l0 59 -55 -6 c-38 -5 -55 -3 -55 5 0 6 17
11 40 11 33 0 40 4 44 23 5 20 15 143 16 176 0 8 6 6 17 -8 35 -42 83 4 83 80
0 11 15 18 48 25 l47 9 3 51 c3 50 2 52 -30 63 l-33 12 34 15 c23 10 31 19 27
30 -3 9 -6 49 -6 91 l0 75 -32 -33 c-28 -27 -33 -40 -34 -83 -1 -29 3 -54 10
-58 7 -5 5 -8 -5 -8 -13 0 -18 13 -23 53 -7 53 -1 87 14 87 5 0 22 12 39 26
44 37 43 80 -1 99 -18 7 -37 11 -42 8 -5 -4 -6 -1 -3 4 4 6 -19 24 -51 41 -49
26 -59 28 -70 16 -7 -8 -27 -14 -45 -13 -30 0 -31 1 -9 10 13 5 28 7 33 4 13
-9 21 35 16 96 l-3 54 -2 -61 c-1 -43 -6 -64 -16 -67 -19 -7 -27 42 -24 145 2
62 5 75 15 66 10 -8 12 -7 7 5 -11 29 -7 29 -406 23 -64 0 -110 3 -112 9 -3 6
-8 6 -13 -1 -4 -6 -45 -16 -90 -23 -45 -6 -90 -15 -100 -20 -10 -5 -92 -19
-182 -31 -90 -12 -170 -24 -178 -27 -13 -5 -15 2 -11 35 2 23 0 42 -4 42 -5 0
-8 -15 -8 -32 0 -37 -4 -44 -39 -73 -19 -16 -23 -16 -19 -4 5 13 1 15 -19 11
-14 -3 -29 1 -33 8 -5 9 -35 13 -94 13 -47 0 -83 3 -80 8 2 5 -8 11 -23 14
-15 3 -43 10 -62 15 -19 5 -37 7 -41 5 -13 -8 -129 -15 -144 -9 -12 5 -9 11
14 31 22 18 42 25 75 25 43 1 44 2 23 16 -16 12 -23 12 -26 4 -6 -18 -89 -16
-89 2 0 10 11 13 39 11 21 -2 41 1 44 6 3 6 15 7 25 4 11 -4 25 -2 32 3 7 5
30 13 52 17 22 4 43 12 47 18 6 9 11 8 18 -3 9 -13 13 -12 30 8 12 14 29 23
42 21 13 -1 31 1 40 5 9 4 22 5 28 1 5 -3 10 -1 10 4 0 6 9 20 21 32 15 15 28
19 49 14 15 -3 48 -1 72 6 26 8 36 14 26 16 -10 3 -18 9 -18 15 0 5 -7 8 -15
4 -9 -3 -15 0 -15 7 0 12 -45 27 -120 41 -66 13 -84 18 -102 27 -27 14 -13 29
28 29 19 0 34 4 34 10 0 5 -7 7 -15 4 -8 -4 -15 -1 -15 5 0 10 16 15 47 14 9
0 9 4 0 18 -8 13 -24 19 -52 20 -35 1 -37 2 -15 9 14 4 41 9 60 10 28 1 31 3
15 9 -11 5 -23 6 -28 4 -14 -8 -67 8 -64 20 1 7 -4 11 -10 10 -7 -2 -13 2 -13
7 0 6 11 8 25 4 17 -4 32 -1 43 9 12 11 40 16 87 18 71 1 164 24 177 43 4 6
16 5 35 -3 34 -17 75 -23 67 -10 -3 5 10 9 29 9 18 0 37 3 41 8 4 4 11 7 14 8
27 2 72 17 72 24 0 12 93 30 104 20 13 -13 -1 -27 -35 -34 -37 -7 -34 -30 5
-34 17 -2 37 5 57 22 17 14 35 26 41 26 6 0 3 9 -7 20 -18 19 -17 20 2 20 11
0 23 -3 27 -7 3 -4 13 -8 20 -9 21 -3 88 -36 114 -55 13 -10 31 -15 43 -12 15
4 27 -1 38 -15 16 -22 35 -27 156 -42 39 -5 78 -12 88 -16 9 -3 24 -1 32 6 12
10 23 8 55 -9 39 -20 40 -20 50 -1 6 11 17 20 25 20 7 0 17 5 20 10 4 6 1 9
-5 8 -7 -2 -14 5 -15 15 -4 20 -1 21 26 7 15 -8 19 -7 19 5 0 8 -3 14 -7 14
-26 -4 -49 24 -44 54 1 4 -6 21 -14 37 -18 35 -19 42 -2 38 6 -1 28 1 48 5 33
7 35 9 31 40 -2 17 -9 38 -14 44 -8 10 -3 12 21 7 18 -4 50 -1 71 6 31 10 44
10 69 -1 39 -17 39 -30 1 -69 -36 -37 -36 -38 -7 -38 59 -2 124 -9 138 -16 8
-4 28 -2 43 4 15 5 49 10 76 10 33 0 50 5 54 15 3 8 12 15 20 15 7 0 16 7 20
15 3 8 12 15 20 15 10 0 13 -6 10 -15 -4 -8 -12 -15 -19 -15 -11 0 -45 -41
-45 -55 0 -2 8 -4 18 -3 30 2 52 -2 52 -9 0 -12 -59 -43 -81 -43 -16 0 -19 -4
-13 -22 l7 -23 -20 24 c-17 21 -22 22 -58 12 -28 -7 -42 -7 -52 0 -10 9 -21 4
-48 -20 l-35 -30 35 -24 c24 -17 31 -27 24 -34 -22 -22 20 -27 260 -28 216 -1
252 -4 299 -20 43 -16 52 -24 52 -44 0 -22 2 -23 43 -17 23 4 46 11 51 16 5 5
14 6 21 4 7 -3 15 -1 19 4 3 5 29 6 57 2 55 -7 90 3 112 34 12 16 14 16 36 -3
13 -12 29 -21 36 -21 19 0 33 -21 28 -41 -3 -11 -14 -19 -26 -19 -15 0 -18 -3
-10 -11 6 -6 17 -8 24 -3 8 4 28 7 46 5 42 -3 58 6 42 25 -6 8 -8 14 -4 14 4
0 2 7 -5 15 -17 21 -5 45 22 45 41 0 67 12 84 37 12 20 13 27 4 33 -7 4 -10
12 -6 18 3 6 -3 14 -14 17 -28 9 -20 29 12 33 22 3 27 -2 33 -27 7 -33 22 -41
31 -17 4 12 12 9 34 -11 16 -14 26 -31 23 -39 -4 -10 3 -14 25 -14 36 0 62 -9
62 -21 0 -4 -7 -6 -15 -3 -21 8 -20 -24 2 -48 22 -25 7 -39 -60 -55 -104 -24
-177 -46 -177 -53 0 -10 30 -21 40 -15 4 3 31 -1 59 -8 l51 -13 -31 -32 c-17
-18 -39 -32 -48 -32 -24 0 -60 -30 -43 -36 19 -8 14 -34 -6 -34 -10 0 -22 -4
-28 -10 -6 -6 -16 3 -29 26 -15 29 -16 37 -5 44 23 15 3 40 -33 40 -35 0 -89
-29 -55 -30 29 0 16 -23 -21 -37 -38 -13 -51 -10 -51 13 0 17 -27 18 -63 2
-46 -22 -32 -37 16 -19 21 8 24 7 20 -8 -5 -19 -43 -47 -43 -31 0 16 -36 12
-51 -7 -11 -13 -11 -17 -1 -20 6 -3 12 -9 12 -14 0 -5 -8 -4 -18 2 -14 9 -28
6 -64 -11 -51 -23 -102 -21 -112 6 -3 8 -19 14 -42 14 -28 0 -35 3 -30 15 3 9
-3 19 -14 25 -16 9 -18 8 -13 -7 5 -12 2 -15 -10 -10 -9 3 -17 2 -17 -3 0 -6
8 -10 17 -10 13 0 14 -3 5 -12 -19 -19 -15 -26 23 -44 28 -13 41 -14 66 -5 40
14 39 14 39 -4 0 -8 6 -15 14 -15 7 0 19 -7 26 -15 7 -9 19 -14 27 -11 7 3 23
1 35 -4 13 -5 17 -9 10 -9 -23 -1 -8 -35 18 -42 l25 -6 -28 -13 c-24 -12 -38
-11 -92 2 -60 14 -64 14 -68 -4 -3 -10 2 -22 10 -27 21 -11 8 -31 -21 -31 -19
0 -22 -4 -18 -30 2 -17 -1 -37 -7 -44 -10 -11 -8 -15 6 -18 37 -7 216 13 243
27 16 8 39 15 50 15 33 0 18 24 -21 32 -19 4 -39 5 -46 3 -7 -2 -10 2 -6 11 6
18 43 39 43 25 0 -5 9 -7 20 -4 11 3 20 9 20 14 0 5 29 8 65 8 74 -1 86 -17
30 -39 -19 -7 -32 -17 -29 -22 7 -10 44 -11 44 0 0 4 19 6 42 4 32 -4 40 -1
36 9 -4 11 10 15 71 16 68 1 72 0 39 -9 -53 -14 -47 -29 7 -21 35 4 45 3 45
-8 0 -11 2 -11 9 -1 6 10 16 10 52 1 24 -7 72 -12 106 -13 34 -1 65 -4 69 -8
21 -22 158 4 193 36 20 18 58 15 46 -3 -3 -5 -1 -12 5 -16 5 -3 10 -2 10 3 0
5 29 5 68 -1 37 -5 100 -9 140 -9 135 -2 71 -26 -92 -35 -58 -3 -86 -1 -82 6
10 15 -79 7 -98 -8 -35 -30 -10 -47 83 -58 18 -2 60 -13 94 -24 33 -11 77 -19
98 -18 21 2 41 0 45 -4 4 -4 22 -7 40 -7 18 0 35 -4 39 -10 3 -5 18 -9 33 -9
346 -1 634 -10 672 -20 33 -10 87 -11 206 -6 121 5 167 4 185 -5 38 -21 135
-25 492 -22 l157 2 0 344 0 344 -22 6 c-35 9 -60 7 -53 -4 3 -5 -10 -16 -30
-24 -45 -19 -192 -18 -200 2 -3 7 -1 10 4 7 5 -3 12 -1 16 5 3 5 -1 10 -9 10
-9 0 -16 5 -16 11 0 7 9 9 22 6 41 -11 202 37 195 58 -2 5 -30 11 -62 12 -32
1 -64 4 -71 7 -7 3 -31 -4 -53 -15 -22 -10 -50 -19 -62 -19 -14 0 -19 -5 -16
-14 3 -8 -1 -17 -9 -20 -18 -7 -54 10 -54 24 0 15 -71 11 -100 -4 -15 -9 -31
-11 -40 -6 -22 12 -181 10 -203 -2 -10 -5 -22 -7 -25 -3 -9 8 19 25 42 25 10
0 24 7 30 15 8 11 31 16 79 18 45 1 67 6 67 14 0 9 15 12 49 10 34 -1 47 -6
44 -14 -8 -19 11 -16 41 8 33 26 33 35 -4 54 -17 9 -28 19 -26 24 6 10 81 5
126 -9 22 -7 62 -8 110 -3 41 4 110 8 152 8 l78 0 0 283 0 282 -1106 0 c-746
0 -1112 -3 -1125 -10 -15 -8 -18 -17 -13 -37 5 -18 4 -24 -5 -19 -6 4 -9 12
-6 17 10 15 -3 10 -25 -8 -11 -10 -29 -25 -39 -35 -11 -9 -22 -14 -25 -11 -3
4 -6 1 -6 -6 0 -7 -4 -10 -9 -7 -5 4 -8 17 -6 31 3 31 -18 33 -39 3 -9 -12
-19 -19 -23 -15 -4 4 3 15 16 23 12 9 20 22 17 30 -3 7 4 16 15 19 22 7 26 25
5 25 -15 0 -37 -22 -40 -42 -3 -25 -17 -38 -41 -38 -20 0 -24 5 -23 29 1 41
-9 53 -32 38 -16 -9 -24 -9 -40 1 -15 9 -428 12 -1935 12 l-1915 0 0 -112z
m5063 -30 c3 -9 8 -10 15 -3 16 15 102 6 102 -10 0 -20 25 -25 52 -11 25 13
65 23 126 31 27 3 33 1 28 -10 -6 -17 -1 -18 22 -6 9 4 34 11 55 15 43 8 51
-8 12 -26 -13 -6 -22 -15 -19 -19 3 -5 0 -9 -5 -9 -6 0 -11 -7 -11 -15 0 -16
-10 -18 -102 -19 -31 -1 -60 -4 -63 -8 -10 -10 -45 3 -38 15 3 6 1 7 -6 3 -6
-4 -27 2 -47 13 -66 39 -284 14 -284 -33 0 -18 -26 -29 -68 -30 -18 -1 -36 -7
-41 -14 -6 -10 -14 -10 -32 -3 -13 5 -33 12 -44 16 -18 6 -17 9 15 37 30 25
31 29 11 23 -16 -5 -21 -4 -17 4 4 6 2 11 -4 11 -7 0 -9 -7 -6 -16 8 -21 -11
-44 -35 -44 -23 0 -25 16 -4 24 22 8 18 26 -5 26 -25 0 -26 16 -2 29 9 6 12
11 7 11 -6 0 -16 -5 -21 -10 -7 -7 -17 -5 -30 6 -16 13 -16 15 -1 10 9 -3 17
-2 17 3 0 4 30 7 66 6 51 -1 68 -5 75 -18 8 -13 14 -15 30 -7 13 7 19 7 19 1
0 -6 -12 -14 -26 -17 -16 -4 -23 -12 -20 -20 3 -8 1 -14 -4 -14 -6 0 -10 -5
-10 -10 0 -6 13 -4 30 5 17 9 40 13 54 9 17 -4 37 4 72 29 41 28 91 51 126 56
3 1 8 -5 11 -11z m-3353 -1072 c-25 -13 -45 -28 -46 -32 -4 -47 -17 -62 -57
-68 -43 -5 -238 -20 -247 -18 -3 1 -6 14 -7 29 -1 15 0 22 3 16 3 -7 17 -13
30 -13 14 0 22 4 19 10 -3 6 -4 10 -1 10 2 0 13 3 23 6 15 5 15 4 3 -5 -23
-16 -7 -22 39 -15 31 5 39 10 31 19 -8 9 6 14 61 19 62 6 112 27 91 39 -4 2
-1 2 5 1 7 -2 27 3 45 11 52 23 57 16 8 -9z m574 -152 c-4 -15 0 -34 10 -49
12 -17 16 -49 16 -112 1 -48 5 -122 10 -163 5 -46 5 -82 -1 -92 -12 -22 -45
-23 -53 -2 -12 31 -6 219 9 267 12 40 12 47 0 47 -19 0 -30 19 -18 31 6 6 7
30 3 54 -7 49 -5 56 16 48 9 -3 12 -13 8 -29z m-1150 -160 c16 -2 31 -5 32 -7
2 -2 1 -33 -3 -70 l-6 -66 -45 -7 c-30 -4 -54 -16 -70 -33 -21 -22 -24 -23
-19 -6 3 11 9 52 13 91 l6 71 51 -8 c28 -5 52 -7 54 -5 6 6 -120 35 -129 30
-4 -3 -8 2 -8 12 0 14 7 16 48 9 26 -4 60 -9 76 -11z m953 -336 c-3 -18 -11
-65 -18 -104 l-12 -71 -224 -8 c-123 -4 -226 -5 -229 -3 -2 3 64 8 148 11 98
5 154 11 159 19 9 14 0 40 -12 32 -5 -3 -9 -1 -9 4 0 6 -19 9 -42 7 -26 -2
-51 3 -66 13 -18 12 -25 13 -31 3 -10 -16 -61 -16 -136 -1 -44 9 -60 10 -63 1
-2 -6 -8 -11 -13 -11 -6 0 -7 5 -3 11 4 7 0 9 -14 5 -12 -4 -26 0 -37 10 -13
14 -18 15 -25 4 -4 -7 -22 -15 -38 -16 -24 -3 -32 1 -37 16 -7 23 -25 27 -25
5 0 -8 -5 -15 -11 -15 -6 0 -9 6 -6 14 7 17 -46 42 -64 30 -8 -5 -9 -3 -4 6 7
11 -17 12 -130 6 -77 -4 -137 -5 -134 -2 2 3 162 14 354 26 193 11 411 24 485
29 74 4 159 9 189 10 l53 1 -5 -32z m71 -791 c2 -36 -1 -48 -15 -55 -22 -11
-111 -13 -118 -2 -2 4 -23 6 -45 4 -30 -2 -38 0 -33 9 4 7 6 19 5 28 -2 9 5
22 13 29 14 11 20 11 37 1 20 -13 24 -11 40 19 2 3 14 12 28 21 21 14 30 15
55 5 26 -11 30 -18 33 -59z"/>
<path d="M2299 2568 c45 -33 46 -35 27 -60 -11 -15 -11 -27 0 -70 11 -41 23
-61 56 -90 24 -21 50 -40 59 -43 9 -3 21 -20 27 -38 l11 -32 -5 31 c-4 23 -1
33 10 37 13 5 15 22 13 86 -2 43 -8 85 -15 93 -9 11 -9 18 1 28 10 12 9 12 -3
3 -11 -9 -20 -8 -34 3 -11 8 -14 15 -8 15 7 1 17 3 22 4 6 1 18 3 27 4 16 1
16 2 1 17 -11 11 -42 18 -103 21 -47 3 -81 9 -75 13 6 4 -3 7 -21 8 l-31 1 41
-31z"/>
<path d="M4180 2061 c0 -26 -3 -31 -18 -27 -15 5 -17 0 -15 -34 2 -42 -10 -51
-37 -27 -12 10 -12 9 0 -7 8 -10 15 -34 16 -52 1 -31 -1 -33 -25 -27 -14 3
-29 11 -33 17 -5 7 -8 7 -8 1 0 -6 11 -23 25 -38 19 -20 22 -27 10 -27 -8 0
-15 -4 -15 -10 0 -5 6 -10 14 -10 19 0 31 -19 19 -31 -5 -5 -25 -10 -46 -11
-20 -2 -37 -7 -37 -11 0 -5 -4 -5 -10 -2 -5 3 -10 2 -10 -4 0 -5 9 -13 20 -16
11 -3 20 -11 20 -17 0 -6 -6 -6 -15 2 -9 7 -18 10 -21 7 -9 -8 54 -45 96 -57
19 -6 44 -17 55 -26 17 -13 18 -16 5 -24 -8 -5 -37 -10 -65 -11 -48 -1 -112
-5 -127 -8 -19 -3 -5 -43 27 -78 19 -21 35 -41 35 -45 0 -4 -20 1 -45 10 -30
11 -48 13 -53 6 -8 -12 -62 -13 -62 -1 0 5 -7 1 -16 -7 -14 -15 -14 -23 -1
-81 8 -35 13 -66 10 -69 -5 -5 -68 63 -74 81 -7 22 -54 -9 -56 -37 -3 -44 -10
-65 -22 -63 -6 2 -11 -8 -11 -22 0 -14 5 -25 10 -25 20 0 61 -33 50 -40 -7 -4
-2 -16 14 -33 14 -15 22 -27 19 -27 -4 0 2 -7 13 -15 11 -8 14 -15 7 -15 -29
0 -10 -20 25 -26 21 -4 49 -19 65 -36 15 -16 40 -34 55 -40 25 -9 26 -11 7
-18 -12 -4 -23 -3 -27 4 -6 8 -10 7 -16 -2 -7 -9 -13 -8 -27 8 -10 11 -26 20
-36 20 -10 0 -21 5 -24 10 -3 6 -11 10 -16 10 -6 0 -7 -6 -2 -12 4 -7 8 -17 8
-23 0 -5 16 -9 35 -8 20 1 27 -1 15 -4 -19 -6 37 -28 196 -79 25 -8 55 -23 65
-33 11 -10 26 -21 34 -24 12 -4 12 -6 1 -6 -7 -1 -30 9 -50 21 -27 17 -33 18
-22 5 16 -20 9 -22 -18 -5 -15 9 -23 7 -42 -10 -12 -12 -18 -22 -13 -22 6 0
15 5 22 12 9 9 20 7 47 -8 41 -22 50 -49 10 -31 -14 7 -25 15 -25 20 0 4 -4 7
-10 7 -5 0 -7 -7 -4 -15 5 -12 1 -12 -26 1 -30 15 -30 17 -14 35 21 23 18 27
-39 44 -33 10 -48 10 -56 2 -18 -18 -13 -34 15 -41 19 -5 24 -11 19 -26 -5
-14 -2 -20 10 -20 9 0 14 4 10 9 -3 5 0 13 6 17 7 4 9 3 6 -3 -4 -6 0 -16 8
-23 8 -7 15 -19 15 -26 0 -8 5 -14 12 -14 6 0 9 -3 5 -6 -3 -3 -18 1 -34 9
-62 34 -143 65 -148 57 -3 -4 -18 -3 -35 3 -37 14 -24 23 37 26 50 2 65 8 42
15 -8 2 -23 7 -34 12 -11 4 -31 9 -45 11 -14 2 -38 8 -55 13 l-30 10 32 -3
c18 -2 30 0 28 4 -3 4 2 9 10 13 8 3 14 0 12 -7 -1 -7 3 -11 10 -10 6 2 28 -4
48 -13 36 -15 61 -11 49 8 -4 6 -9 5 -15 -3 -6 -11 -9 -10 -15 4 -8 21 -65 47
-115 52 -52 5 -119 24 -119 34 0 12 26 21 56 21 27 0 33 24 8 34 -9 3 -12 11
-8 18 4 6 -3 4 -17 -5 -29 -21 -39 -21 -39 -1 0 10 6 14 15 10 17 -6 21 9 5
19 -6 3 -7 18 -4 33 l6 27 -21 -25 c-11 -14 -23 -21 -27 -17 -4 4 -1 7 7 7 12
0 12 2 0 9 -12 8 -12 14 4 38 15 22 15 25 2 15 -30 -25 -204 -246 -252 -321
-35 -53 -50 -70 -56 -60 -7 11 -9 11 -9 1 0 -7 -4 -11 -9 -7 -5 3 -12 1 -16
-5 -4 -6 -11 -7 -17 -4 -8 5 -9 1 -4 -11 5 -15 4 -16 -9 -5 -13 11 -14 10 -9
-4 9 -22 -3 -20 -16 3 -13 25 -3 52 17 44 12 -5 14 -1 8 16 -4 15 -2 23 10 27
12 5 13 9 4 20 -9 11 -6 18 11 32 14 11 19 21 13 25 -11 7 -145 -95 -558 -423
-115 -92 -307 -243 -426 -336 -118 -93 -231 -181 -250 -196 l-34 -27 2173 0
2172 -1 0 816 c0 743 -1 815 -16 803 -16 -13 -73 -13 -829 -6 l-260 2 -6 -65
c-5 -63 -6 -63 -7 -15 -3 76 -14 155 -22 155 -4 0 -6 -46 -5 -102 1 -57 1 -83
-2 -58 -2 25 -6 52 -10 60 -3 8 -5 19 -4 23 1 4 -8 3 -19 -3 -11 -6 -35 -10
-53 -8 -45 4 -209 -13 -229 -23 -11 -6 -18 -5 -21 4 -3 6 -6 3 -6 -8 -1 -17
-3 -17 -11 -5 -8 13 -10 13 -10 -2 0 -12 -13 -18 -52 -23 -49 -7 -119 -34 -90
-35 19 0 14 -28 -5 -33 -10 -3 17 -5 60 -6 86 -1 98 -17 15 -20 -29 -1 -69 -3
-88 -3 -90 -4 -142 2 -137 15 3 7 -1 21 -9 31 -7 11 -11 23 -8 28 3 5 0 16 -7
24 -10 12 -9 13 5 8 10 -4 16 -1 16 9 0 8 -6 17 -14 20 -8 3 -12 14 -10 24 6
23 -29 58 -51 50 -8 -4 -15 -2 -15 3 0 6 5 10 10 10 6 0 10 4 10 8 0 4 -12 7
-27 6 -34 -1 -55 18 -46 42 5 14 3 16 -11 11 -14 -6 -16 -3 -11 13 4 12 2 20
-5 20 -6 0 -10 6 -8 12 6 16 -19 41 -32 33 -6 -3 -7 1 -4 10 5 11 2 14 -11 9
-14 -6 -16 -3 -10 17 4 13 14 31 22 39 14 13 15 13 10 -3 -4 -11 -3 -16 3 -12
17 10 11 24 -16 38 -17 9 -23 17 -15 21 17 11 13 26 -5 19 -14 -5 -16 -2 -10
20 7 31 -9 37 -19 7 -8 -25 -25 -17 -18 9 3 11 -3 27 -15 39 -20 20 -20 20
-25 -3 -2 -13 1 -23 6 -22 6 1 12 -15 13 -35 2 -21 -1 -38 -6 -38 -5 0 -6 8
-3 18 6 15 5 16 -12 2 -17 -14 -18 -13 -11 14 5 22 4 27 -7 23 -10 -4 -13 1
-9 19 2 14 0 24 -7 24 -6 0 -11 -10 -11 -22 0 -12 -3 -18 -7 -15 -3 4 -6 22
-5 41 1 19 -5 39 -13 46 -13 11 -15 7 -15 -19z"/>
</g>
</svg>
