<?xml version="1.0" standalone="no"?>
<!DOCTYPE svg PUBLIC "-//W3C//DTD SVG 20010904//EN"
 "http://www.w3.org/TR/2001/REC-SVG-20010904/DTD/svg10.dtd">
<svg version="1.0" xmlns="http://www.w3.org/2000/svg"
 width="1200.000000pt" height="706.000000pt" viewBox="0 0 1200.000000 706.000000"
 preserveAspectRatio="xMidYMid meet">
<metadata>
Created by potrace 1.16, written by Peter Selinger 2001-2019
</metadata>
<g transform="translate(0.000000,706.000000) scale(0.100000,-0.100000)"
fill="#000000" stroke="none">
<path d="M2127 4093 c-4 -3 -7 -33 -7 -65 0 -33 -5 -68 -10 -79 -6 -11 -10
-71 -9 -137 1 -64 5 -407 8 -762 4 -355 8 -646 9 -648 1 -1 12 -2 25 -1 69 6
67 9 67 -107 0 -97 2 -106 20 -111 11 -3 20 -8 20 -12 0 -15 -45 -44 -73 -46
-36 -3 -57 -28 -57 -67 0 -30 -9 -35 -28 -16 -9 9 -15 9 -20 3 -11 -16 -107
-12 -128 5 -25 21 -91 50 -112 50 -10 0 -23 5 -30 12 -7 7 -62 13 -144 16
-127 4 -136 3 -198 -23 -91 -38 -190 -120 -190 -156 0 -16 -5 -39 -11 -53 -10
-22 -8 -30 17 -63 15 -21 31 -40 34 -43 13 -10 86 -126 109 -171 l23 -46 79
-6 c72 -5 109 -17 109 -36 0 -4 -66 -6 -147 -5 -82 1 -391 -1 -688 -5 -297 -4
2045 -8 5204 -9 3159 -1 5742 0 5740 2 -2 2 -170 7 -372 10 -202 3 -372 8
-378 11 -5 4 -9 30 -9 60 0 67 -24 174 -50 220 -11 20 -20 50 -21 68 -1 18 -6
61 -13 97 l-11 64 -50 -2 c-28 -2 -68 1 -90 7 -22 5 -58 14 -80 20 -22 5 -41
15 -43 20 -2 6 -19 11 -37 11 -33 0 -34 -1 -60 -82 -16 -48 -29 -117 -32 -163
-6 -89 -45 -254 -72 -300 l-17 -30 -475 -1 c-261 -1 -530 1 -599 5 l-125 6 1
39 2 38 -50 -5 c-59 -7 -76 -19 -80 -55 l-3 -27 -107 -3 c-97 -3 -108 -2 -108
14 0 10 7 25 15 34 14 15 14 21 0 53 -8 20 -15 48 -15 62 0 62 -54 237 -89
289 -44 65 -72 136 -78 193 -3 30 -9 56 -13 58 -4 3 -29 -2 -56 -10 -27 -7
-82 -17 -122 -21 l-73 -7 6 -36 c11 -69 46 -461 49 -545 1 -44 -2 -51 -29 -67
-27 -16 -63 -18 -393 -18 -287 -1 -363 2 -360 12 2 6 18 19 36 27 45 21 40 30
-18 30 -41 0 -50 3 -50 18 0 9 -10 28 -21 42 -43 53 -119 170 -154 236 -20 38
-40 71 -43 74 -4 3 -13 16 -20 29 -8 13 -22 38 -31 55 -58 103 -93 147 -109
140 -9 -4 -68 -9 -129 -12 -103 -4 -113 -6 -113 -23 0 -17 17 -56 30 -69 3 -3
25 -30 50 -60 24 -30 50 -58 56 -63 7 -4 22 -23 34 -42 21 -34 21 -39 10 -146
-7 -61 -10 -141 -8 -178 l3 -66 -422 -3 c-242 -1 -423 2 -423 7 0 5 15 14 33
21 17 6 41 15 52 20 31 12 108 79 124 107 13 26 14 26 111 20 53 -3 102 -2
108 2 15 9 -6 81 -25 88 -7 3 -13 11 -13 18 0 7 -25 36 -55 63 -30 28 -55 53
-55 56 0 3 52 6 115 6 106 0 115 1 126 21 12 23 9 143 -4 155 -4 4 -26 10 -48
13 l-40 6 1 981 0 981 -1141 6 c-1473 9 -3534 9 -3542 0z m899 -895 c54 -54
39 -178 -24 -195 -15 -4 -58 -8 -97 -8 l-70 0 -2 100 c-2 144 -6 138 88 133
69 -3 82 -6 105 -30z m254 7 c0 -21 -5 -25 -27 -25 -60 0 -103 -12 -103 -29 0
-14 9 -16 54 -14 38 1 58 -2 66 -12 22 -26 -6 -45 -66 -45 -41 0 -54 -4 -54
-15 0 -12 13 -15 60 -15 47 0 61 -4 69 -18 16 -31 -6 -42 -85 -42 -108 0 -104
-5 -104 119 0 59 3 111 7 114 3 4 46 7 95 7 87 0 88 0 88 -25z m90 -69 l5 -89
65 -1 c55 -1 65 -4 68 -20 2 -10 -1 -22 -8 -26 -16 -10 -152 -12 -167 -2 -7 4
-12 38 -13 87 -3 147 -3 147 23 143 20 -3 22 -9 27 -92z m324 42 c13 -29 26
-62 30 -72 9 -25 15 -17 46 57 22 52 31 62 51 62 28 0 28 -7 -1 -95 -44 -130
-52 -141 -96 -132 -17 3 -32 26 -63 99 -49 112 -51 133 -15 133 21 0 29 -9 48
-52z m364 25 c-3 -27 -5 -28 -58 -28 -44 0 -55 -3 -58 -17 -4 -19 5 -21 63
-19 43 2 63 -13 49 -36 -8 -13 -26 -19 -63 -21 -36 -2 -51 -7 -51 -17 0 -10
17 -15 62 -17 52 -2 63 -6 66 -22 5 -27 -10 -33 -89 -35 -112 -3 -109 -6 -109
113 0 66 4 106 12 114 7 7 44 12 96 12 l83 0 -3 -27z m232 -3 c25 -32 25 -72
0 -95 -20 -18 -27 -45 -12 -45 9 0 33 -51 27 -60 -11 -17 -56 5 -76 37 -15 24
-27 33 -43 31 -16 -2 -20 -9 -18 -29 4 -31 -20 -53 -48 -44 -18 6 -20 14 -20
114 0 59 3 111 8 115 4 4 42 6 85 4 69 -3 80 -6 97 -28z m116 -15 c15 -25 30
-45 33 -45 4 0 19 20 34 45 18 28 36 45 48 45 31 0 33 -26 6 -62 -32 -42 -57
-103 -57 -138 0 -20 -6 -29 -22 -33 -30 -8 -38 -1 -38 37 0 22 -15 56 -45 102
-24 38 -45 75 -45 82 0 7 12 12 29 12 23 0 34 -9 57 -45z m1452 -257 c8 -7 12
-7 12 1 0 6 9 11 20 11 19 0 20 -7 22 -202 0 -112 0 -213 -1 -225 -3 -37 0
-38 187 -41 l102 -2 0 -169 0 -169 -162 -6 c-264 -10 -739 -5 -744 8 -2 6 -5
190 -6 408 -3 347 -1 398 12 401 36 8 546 -6 558 -15z m-4138 -926 c10 -4 30
-22 46 -41 l28 -34 -26 5 c-26 5 -45 -12 -31 -26 11 -11 43 -6 43 7 0 7 7 4
15 -7 25 -33 18 -87 -15 -126 -22 -27 -28 -30 -24 -14 9 34 -15 39 -40 9 -17
-20 -36 -29 -70 -32 -25 -3 -46 -10 -46 -14 0 -12 15 -11 80 1 64 12 74 7 28
-13 -51 -23 -75 -26 -115 -15 -41 11 -86 38 -79 46 3 3 12 -1 21 -8 13 -10 15
-9 15 8 0 11 -6 25 -14 31 -12 10 -17 8 -26 -9 -11 -21 -12 -21 -29 -3 -32 34
-43 77 -32 119 14 51 67 110 111 123 34 10 127 6 160 -7z m9010 3 c0 -23 54
-138 88 -188 17 -24 49 -80 71 -125 84 -173 84 -172 -189 -172 -201 0 -209 1
-215 20 -4 13 2 35 16 58 50 85 58 102 64 148 8 54 32 114 46 114 5 0 9 4 9 9
0 14 92 151 101 151 5 0 9 -7 9 -15z m-8584 -48 c14 -26 17 -27 104 -27 l90 0
0 -129 c0 -103 3 -131 15 -141 10 -9 56 -13 140 -14 l124 -1 37 -37 c20 -21
40 -38 45 -38 16 0 89 -35 89 -42 0 -10 -1034 -11 -1043 -1 -8 8 32 29 71 37
35 8 152 119 152 146 0 10 4 21 8 24 5 3 15 30 22 61 11 46 11 68 1 116 -6 33
-10 63 -7 67 3 5 35 8 72 7 61 -1 67 -3 80 -28z m2474 -97 c0 -89 29 -156 102
-230 38 -39 69 -60 106 -73 28 -10 52 -22 52 -27 0 -6 -341 -10 -925 -10 -535
0 -925 4 -925 9 0 5 19 16 41 25 23 10 61 32 84 51 23 19 53 35 67 35 54 0 60
15 59 149 -1 67 1 127 4 132 4 5 277 9 671 9 l664 0 0 -70z m1262 24 c-4 -45
10 -109 34 -161 19 -42 101 -124 144 -144 19 -9 47 -23 62 -29 15 -7 25 -17
22 -22 -7 -11 -1024 -11 -1024 1 0 9 60 41 77 41 5 0 40 30 77 66 52 50 74 65
94 64 85 -6 182 1 182 12 0 23 -72 130 -111 165 -22 20 -39 39 -39 44 0 6 103
8 242 7 l243 -3 -3 -41z m2777 -34 c17 -45 131 -223 151 -235 5 -3 10 -19 10
-35 0 -49 -29 -60 -153 -60 -116 0 -131 7 -110 53 17 36 33 92 33 112 0 10 4
32 10 49 5 17 12 62 16 99 7 78 18 82 43 17z m-1259 -79 c0 -8 36 -47 92 -98
7 -7 18 -18 24 -25 6 -7 24 -22 40 -33 45 -31 85 -75 79 -86 -8 -12 -272 -12
-280 1 -3 6 -15 10 -25 10 -24 0 -36 18 -21 33 6 6 11 19 11 29 0 10 4 26 9
36 5 9 15 37 22 62 7 25 16 53 21 63 9 18 28 24 28 8z"/>
<path d="M6995 2833 c-54 -4 -95 -35 -95 -71 0 -23 43 -72 64 -72 8 0 22 -3
32 -7 12 -4 15 -3 10 6 -10 15 16 71 44 96 22 20 27 56 8 53 -7 -1 -35 -3 -63
-5z"/>
<path d="M10260 2670 c0 -5 -9 -19 -20 -30 -12 -12 -30 -37 -41 -57 -18 -32
-19 -38 -5 -51 13 -14 14 -13 9 6 -4 17 -1 22 15 22 12 0 24 -5 27 -11 4 -6
19 -7 35 -4 23 5 31 1 49 -24 19 -26 69 -51 104 -51 20 0 3 32 -22 41 -31 11
-41 32 -41 89 0 41 -7 53 -37 69 -27 14 -73 15 -73 1z"/>
</g>
</svg>
