<?xml version="1.0" standalone="no"?>
<!DOCTYPE svg PUBLIC "-//W3C//DTD SVG 20010904//EN"
 "http://www.w3.org/TR/2001/REC-SVG-20010904/DTD/svg10.dtd">
<svg version="1.0" xmlns="http://www.w3.org/2000/svg"
 width="1200.000000pt" height="630.000000pt" viewBox="0 0 1200.000000 630.000000"
 preserveAspectRatio="xMidYMid meet">
<metadata>
Created by potrace 1.16, written by Peter Selinger 2001-2019
</metadata>
<g transform="translate(0.000000,630.000000) scale(0.100000,-0.100000)"
fill="#000000" stroke="none">
<path d="M9694 5090 c-44 -30 -95 -68 -114 -83 -18 -15 -56 -40 -84 -54 -43
-22 -48 -23 -33 -6 24 28 22 33 -17 33 -18 0 -54 3 -79 6 -36 5 -47 11 -49 27
-4 30 -26 32 -37 4 -5 -13 -17 -27 -26 -31 -23 -9 -25 -8 -19 9 5 12 -2 15
-29 15 -74 0 -130 13 -134 31 -8 30 -31 30 -45 1 -14 -28 -53 -46 -42 -19 6
16 0 18 -121 38 -38 6 -80 15 -92 20 -15 5 -26 3 -37 -10 -14 -16 -8 -19 99
-55 64 -21 114 -42 112 -49 -1 -6 25 -19 58 -28 33 -10 60 -18 60 -19 0 -7 55
-8 59 -1 7 11 46 2 46 -10 0 -5 -4 -9 -10 -9 -28 0 -2 -24 60 -55 39 -20 68
-40 65 -45 -3 -6 -10 -10 -16 -10 -12 0 -94 -63 -157 -120 -55 -50 -67 -56
-38 -17 16 20 26 37 24 37 -2 0 -55 7 -116 15 -104 13 -142 12 -142 -4 0 -3
45 -26 100 -50 55 -24 97 -47 95 -52 -3 -4 3 -7 12 -6 10 0 46 -18 80 -41 91
-62 107 -55 68 31 l-24 55 30 13 c17 7 56 28 87 48 83 52 132 74 132 58 0 -15
81 -77 99 -77 6 0 11 5 11 10 0 6 7 10 16 10 10 0 13 -6 10 -18 -7 -21 60
-106 76 -96 5 4 34 -17 63 -46 47 -46 55 -51 74 -41 26 14 26 15 -1 62 -20 36
-20 40 -5 57 21 23 21 36 3 51 -10 8 -16 9 -21 1 -12 -20 -31 -10 -49 27 -17
36 -17 36 8 60 30 28 32 36 11 53 -13 10 -19 10 -33 -4 -10 -9 -22 -16 -25
-16 -9 0 -57 107 -57 125 0 8 32 42 70 76 133 118 150 185 24 99z"/>
<path d="M3822 4544 c-11 -40 -10 -54 4 -98 18 -53 41 -94 81 -137 13 -14 38
-49 56 -77 17 -29 50 -77 71 -107 38 -53 39 -56 20 -69 -10 -8 -81 -29 -156
-48 -111 -27 -137 -36 -132 -48 4 -8 9 -25 11 -37 5 -21 3 -21 -24 -11 -22 8
-29 16 -26 32 3 12 -6 37 -19 56 -20 29 -31 36 -65 38 -35 3 -44 -1 -63 -25
-15 -19 -20 -38 -18 -60 2 -17 1 -30 -2 -28 -3 2 -26 -1 -50 -6 -103 -23 -406
-71 -552 -87 -87 -9 -158 -20 -158 -24 0 -25 53 -33 235 -33 105 0 212 2 239
4 33 3 51 0 54 -7 2 -7 16 -12 32 -12 21 0 33 -8 49 -32 l21 -33 0 32 c0 31 0
31 66 38 65 7 66 7 95 -26 22 -25 28 -28 25 -14 -7 27 4 41 39 48 21 4 38 0
55 -13 14 -11 34 -20 46 -20 11 0 25 -5 32 -12 9 -9 12 -5 12 20 l0 32 74 0
c64 0 75 -3 81 -19 3 -10 15 -27 27 -37 20 -19 20 -19 14 13 -4 17 -3 34 2 36
4 3 36 0 71 -7 43 -9 71 -21 89 -40 l27 -27 -27 6 c-16 4 -28 4 -28 0 0 -4 21
-32 46 -62 38 -44 49 -51 60 -42 11 9 21 9 42 0 24 -12 29 -10 48 14 31 39 62
26 124 -51 28 -35 74 -84 101 -108 27 -25 46 -47 42 -49 -5 -2 -48 -12 -98
-22 -113 -22 -135 -30 -135 -51 0 -15 15 -16 153 -9 133 6 263 21 215 24 -9 0
-19 5 -22 10 -4 5 3 7 14 4 11 -3 23 -9 26 -14 3 -5 18 -9 33 -9 15 0 54 -9
86 -20 61 -21 79 -19 70 9 -5 16 4 19 77 24 46 4 179 10 297 13 184 6 211 9
195 21 -34 24 -86 31 -341 42 -138 6 -257 13 -265 16 -10 4 -18 -9 -26 -41
l-13 -47 -20 22 c-11 11 -25 21 -32 21 -18 1 -92 71 -111 105 -9 17 -29 48
-45 69 -24 34 -27 43 -17 68 8 22 7 31 -5 44 -23 22 -12 60 20 73 37 14 222
63 225 59 1 -2 10 -15 19 -30 20 -33 37 -37 30 -8 -3 11 -1 20 5 20 6 0 18 7
26 16 15 14 11 21 -43 74 -34 34 -54 63 -49 68 5 5 11 31 14 59 6 46 4 51 -21
71 -35 28 -65 28 -99 1 -33 -26 -35 -75 -5 -113 16 -20 17 -24 4 -20 -19 8
-35 36 -35 62 0 23 -47 32 -169 32 -42 0 -93 4 -113 9 -34 8 -51 0 -29 -13 12
-8 63 -117 57 -124 -11 -11 -75 30 -124 79 -55 54 -60 64 -39 72 9 4 9 6 -1 6
-16 1 -51 41 -52 59 0 6 -5 12 -11 12 -5 0 -17 16 -25 35 -8 19 -21 35 -29 35
-9 0 -12 6 -9 15 4 8 2 15 -4 15 -5 0 -21 17 -34 38 -38 57 -128 152 -145 152
-14 0 -13 -11 4 -56 10 -28 -18 -22 -36 6 -18 30 -18 70 0 70 5 0 9 6 9 14 0
14 -112 116 -127 116 -5 0 -14 -21 -21 -46z"/>
<path d="M4961 3968 c10 -29 18 -69 19 -89 l0 -37 63 5 c59 5 63 4 76 -21 19
-34 33 -33 29 2 l-3 27 90 6 90 5 28 -30 c21 -23 27 -26 22 -11 -4 11 -7 25
-8 30 -1 6 41 14 97 19 l98 9 24 -29 24 -29 -6 28 c-5 24 -3 27 19 27 13 0 38
3 55 6 27 5 30 9 22 24 -8 15 -20 18 -67 15 l-58 -4 59 11 c52 10 60 9 69 -7
8 -15 19 -17 91 -11 44 4 108 11 141 16 33 4 125 14 204 21 95 8 148 17 157
27 8 8 21 11 29 8 8 -3 12 0 9 7 -3 9 -122 12 -492 12 -268 0 -580 3 -693 8
l-206 7 18 -52z"/>
<path d="M7629 3249 c-2 -8 -2 -120 1 -249 5 -204 5 -334 2 -830 -1 -52 1
-136 4 -187 2 -55 0 -94 -6 -98 -6 -3 -10 0 -10 9 0 8 -6 17 -12 20 -10 5 -10
7 0 12 6 3 12 16 12 29 0 23 -2 24 -52 19 -29 -3 -82 -12 -118 -19 -36 -8 -98
-19 -137 -25 -61 -10 -73 -15 -73 -31 0 -10 -4 -19 -10 -19 -5 0 -10 7 -10 15
0 19 -22 19 -130 0 -106 -19 -120 -19 -120 0 0 8 2 15 5 15 5 0 130 22 485 86
80 15 148 29 151 33 4 3 3 38 -1 76 l-7 70 -2 -69 c-1 -75 -8 -86 -12 -19 -2
23 -7 39 -11 37 -5 -3 -8 -11 -7 -17 1 -7 0 -19 -2 -27 -2 -8 -6 64 -9 160
l-6 175 -2 -182 c-2 -168 -1 -183 16 -184 9 -1 -12 -7 -48 -14 -64 -13 -98
-12 -46 1 17 4 26 13 26 26 0 10 -4 16 -10 13 -6 -3 -10 4 -10 17 0 18 2 20
10 8 6 -10 9 39 8 145 l-2 160 -4 -135 c-2 -90 -6 -130 -12 -120 -8 12 -10 10
-10 -8 0 -16 4 -21 13 -16 9 6 9 5 1 -7 -7 -8 -14 -23 -17 -34 -3 -15 -5 -12
-7 10 -2 43 -6 61 -19 82 -6 10 -11 13 -11 5 0 -8 -5 -10 -12 -6 -10 6 -10 4
-2 -7 6 -8 10 -27 8 -44 -1 -16 -3 -43 -3 -58 -1 -16 -5 -26 -11 -22 -5 3 -10
1 -10 -4 0 -6 5 -11 10 -11 6 0 10 -4 10 -9 0 -5 -17 -12 -37 -15 -21 -4 -50
-9 -65 -12 -22 -4 -27 -1 -31 18 -4 22 -4 23 -6 1 -1 -17 -10 -25 -38 -32 -49
-14 -86 -14 -100 0 -6 6 -17 8 -23 4 -9 -6 -9 -10 1 -17 10 -7 5 -8 -14 -3
-17 3 -26 2 -23 -4 3 -5 -11 -12 -32 -15 -20 -4 -48 -9 -62 -12 l-26 -5 1 106
c0 58 -3 105 -7 105 -5 0 -8 -9 -8 -21 0 -15 -47 25 -185 157 -102 97 -195
184 -207 192 -13 9 -57 41 -98 72 l-75 55 -215 3 c-118 1 -243 5 -277 8 -61 6
-62 7 -52 31 14 38 11 60 -11 66 -11 3 -20 12 -20 21 0 13 4 15 19 6 28 -15
31 -13 31 20 0 47 -40 59 -186 53 -84 -3 -122 -9 -130 -18 -13 -18 -11 -111 5
-149 6 -16 10 -30 9 -32 -2 -1 -104 -7 -228 -14 -124 -6 -241 -15 -260 -20
-19 -4 -29 -8 -22 -9 6 -1 12 -12 12 -25 0 -17 9 -27 31 -37 l32 -12 -7 -66
c-17 -181 -19 -234 -8 -227 6 3 124 7 262 8 294 3 264 -13 274 147 8 125 13
151 34 151 13 0 14 -11 8 -75 -3 -41 -9 -109 -12 -150 -6 -64 -5 -75 9 -75 8
0 17 5 19 11 3 9 9 9 25 0 23 -12 163 -16 163 -4 0 4 -12 21 -27 37 -21 23
-18 22 12 -6 37 -34 44 -36 100 -35 33 0 114 -3 181 -7 l121 -8 6 69 c4 37 7
93 7 123 0 30 5 62 10 70 5 8 10 11 10 5 0 -5 7 1 16 13 31 45 36 26 32 -131
l-3 -152 -679 0 c-535 0 -680 -3 -683 -12 -3 -9 -25 -13 -64 -13 -40 0 -59 4
-60 13 0 6 -2 24 -3 40 -1 15 2 27 6 27 4 0 8 22 8 49 l0 50 47 3 c26 2 48 8
51 16 3 9 -9 11 -52 6 -36 -4 -66 -2 -86 6 -23 10 -33 10 -45 0 -8 -6 -19 -9
-25 -5 -6 4 -5 -8 4 -28 14 -35 19 -72 17 -134 -1 -33 -2 -33 -48 -32 -78 2
-108 12 -108 34 0 17 -7 20 -60 20 -96 2 -322 18 -302 23 16 3 17 10 12 45 -4
23 -9 43 -10 45 -5 5 -86 5 -91 -1 -3 -3 -2 -22 2 -43 6 -33 8 -36 15 -19 9
20 9 20 6 0 -2 -17 -9 -20 -57 -19 -30 1 -107 2 -170 1 -63 0 -133 0 -155 1
-22 0 -59 1 -82 1 -26 0 -43 5 -43 12 0 8 -3 9 -14 0 -8 -7 -55 -11 -125 -10
-101 1 -111 3 -111 20 0 12 5 16 15 13 8 -4 15 -1 15 4 0 6 -15 12 -32 14 -29
3 -33 7 -36 33 -6 74 -14 115 -22 115 -5 0 -10 -12 -12 -27 -3 -27 -5 -28 -75
-31 -62 -2 -72 0 -76 15 -4 15 -5 16 -6 1 -1 -13 -14 -17 -76 -20 l-75 -3 -1
30 c-1 21 -3 24 -6 10 -3 -11 -11 -25 -18 -31 -9 -7 -15 -37 -17 -85 -3 -66
-5 -74 -23 -74 -19 0 -20 8 -23 113 l-3 112 -176 0 -176 0 7 -52 c4 -29 15
-62 24 -72 16 -18 16 -19 -2 -12 -18 6 -18 2 -12 -55 3 -34 6 -75 6 -90 0 -16
5 -29 11 -29 5 0 7 5 4 10 -3 6 4 10 17 10 19 0 20 -2 8 -10 -11 -8 6 -10 58
-8 39 1 72 6 72 10 0 4 5 8 10 8 6 0 10 -7 10 -15 0 -12 -17 -15 -89 -15 -50
0 -92 -3 -94 -7 -2 -5 0 -21 4 -38 l7 -30 1 34 c1 25 4 32 12 24 6 -6 10 -54
9 -119 -1 -60 -1 -123 -1 -141 1 -30 -20 -63 -40 -63 -5 0 -9 30 -9 68 0 77
-11 235 -16 241 -2 2 -5 -43 -5 -100 -1 -68 -4 -90 -8 -64 -10 66 -6 168 8
173 9 3 9 7 0 18 -8 10 -8 14 0 14 6 0 11 4 11 9 0 5 -28 8 -62 6 -35 -1 -42
0 -16 2 33 3 48 9 48 19 0 7 6 14 13 14 8 0 11 17 9 60 -3 45 -8 60 -18 60 -9
0 -12 5 -9 10 4 6 10 8 15 5 10 -6 -3 54 -19 83 -19 35 -44 42 -160 42 l-111
0 0 -34 c0 -19 -4 -37 -9 -40 -5 -3 -12 -37 -16 -75 -7 -73 -19 -86 -65 -74
-16 4 -20 15 -22 67 l-3 61 -163 0 -162 0 0 48 0 47 -164 0 -163 0 -7 -52 c-3
-29 -6 -81 -6 -115 0 -55 -2 -63 -19 -63 -21 0 -31 34 -31 106 l0 44 -160 0
-160 0 0 -75 0 -75 -30 0 c-21 0 -30 5 -30 16 0 13 -7 15 -32 10 -18 -3 -35
-12 -39 -18 -4 -6 -24 -13 -44 -14 -30 -3 -35 -1 -26 10 7 8 21 12 31 9 11 -3
20 -1 20 3 0 14 -54 14 -62 1 -4 -7 -8 3 -8 21 l0 32 -75 0 c-55 0 -75 -3 -75
-13 0 -7 12 -17 27 -23 19 -6 -7 -8 -88 -6 -63 2 -120 8 -126 14 -9 7 -13 7
-13 -1 0 -7 -21 -11 -55 -11 -30 0 -55 4 -55 9 0 5 -11 4 -24 -2 -24 -12 -24
-12 40 -83 35 -40 64 -77 64 -83 0 -11 71 -15 257 -15 50 0 73 -4 73 -12 0 -6
11 -14 25 -16 14 -3 25 -1 25 3 0 5 -5 9 -11 9 -5 0 -7 5 -4 10 4 7 229 10
646 10 l639 -1 2 -27 c1 -15 3 -36 4 -47 1 -11 2 -77 3 -147 1 -112 3 -127 19
-131 15 -4 15 -5 0 -6 -13 -1 -17 -10 -16 -41 l0 -39 127 3 c151 5 141 4 141
16 0 5 -6 7 -14 4 -8 -3 -17 -1 -21 5 -4 7 4 11 20 11 44 0 23 24 -31 37 -27
6 -39 12 -28 12 19 1 158 -36 204 -53 12 -5 15 3 16 34 1 22 4 43 7 46 9 10
39 -24 32 -36 -3 -5 -1 -10 5 -10 7 0 10 -13 8 -32 l-3 -33 58 -3 57 -3 0 51
c0 32 4 49 10 45 6 -3 10 -26 10 -49 l0 -44 108 -2 c59 -1 134 -4 167 -6 33
-2 188 -7 343 -10 200 -5 285 -11 288 -19 3 -6 6 -24 7 -40 2 -26 -1 -29 -30
-30 -29 -1 -49 13 -23 16 25 3 29 4 33 9 3 3 -10 5 -28 6 -20 0 -32 -3 -28 -9
3 -6 1 -7 -6 -3 -6 4 -9 11 -6 16 5 8 -25 4 -55 -8 -22 -8 -28 -9 -51 -11 -24
-1 -16 -21 9 -21 10 0 23 -9 29 -19 11 -18 10 -19 -13 -15 -19 3 -24 1 -18 -8
5 -8 1 -7 -11 2 -10 8 -16 10 -12 3 4 -6 2 -15 -4 -19 -8 -5 -9 -3 -4 6 6 10
4 12 -8 7 -10 -3 -17 -2 -17 4 0 6 -5 7 -10 4 -5 -3 -10 1 -10 11 0 13 3 14
14 4 10 -8 21 -8 32 -2 14 8 13 10 -9 16 -27 6 -60 -1 -53 -13 3 -4 -7 -8 -22
-9 -41 -4 -56 -7 -69 -15 -6 -4 -14 -3 -17 2 -7 10 20 22 78 34 8 2 22 9 32
17 9 8 19 14 21 13 1 -2 4 -3 6 -2 8 2 46 9 67 12 14 2 35 9 48 16 15 8 40 10
67 7 24 -4 46 -2 49 2 3 5 -83 12 -192 16 -108 4 -307 11 -442 16 -135 5 -316
9 -402 10 -87 0 -158 4 -158 9 0 4 12 7 27 5 16 -2 22 -1 15 2 -6 3 -10 10 -7
15 4 5 17 2 30 -7 13 -8 34 -14 47 -12 17 2 6 10 -46 31 -69 28 -96 29 -60 2
15 -11 16 -15 4 -16 -8 -1 -19 -1 -24 0 -5 1 -6 -5 -3 -14 6 -13 -17 -15 -186
-15 -257 0 -521 -21 -543 -43 -7 -7 57 -282 67 -285 5 -2 9 -16 9 -32 0 -25 4
-29 38 -34 20 -3 75 -4 122 -3 47 2 99 0 116 -3 17 -4 39 -3 48 2 28 16 239
21 288 7 76 -22 105 -25 205 -19 27 1 40 6 36 13 -4 6 -1 7 7 2 7 -4 29 -9 49
-12 20 -2 50 -5 66 -7 17 -2 68 -7 115 -11 115 -9 124 -24 11 -17 -64 3 -95 1
-105 -7 -8 -7 -19 -11 -23 -8 -4 2 -17 1 -28 -3 -11 -4 -31 -3 -44 2 -34 12
-202 20 -215 9 -16 -13 -66 -8 -66 7 0 9 -32 12 -122 13 -157 2 -168 0 -196
-18 -13 -8 -26 -12 -30 -9 -3 3 0 6 6 6 19 0 14 16 -5 17 -10 0 -46 2 -81 4
-47 2 -66 0 -73 -11 -7 -11 -11 -12 -17 -3 -4 7 -21 11 -37 9 -17 -2 -37 -4
-45 -5 -13 -1 -13 -2 0 -11 8 -5 43 -10 78 -10 35 0 61 -4 58 -9 -5 -8 152
-17 404 -24 58 -2 116 -7 130 -10 21 -6 21 -6 5 2 -19 9 -18 10 5 11 33 1 381
-1 592 -4 92 -1 165 1 163 4 -5 9 39 7 45 -2 15 -19 85 -5 94 18 5 12 18 14
63 8 32 -3 61 -11 65 -18 6 -8 8 -7 8 2 0 7 15 12 41 12 25 0 38 -4 34 -10 -4
-6 -16 -8 -27 -4 -14 4 -18 3 -13 -5 7 -12 45 -12 55 0 10 11 60 19 60 10 0
-6 7 -7 17 -4 11 4 14 3 9 -5 -4 -7 -3 -12 2 -12 6 0 13 7 16 15 5 13 31 15
171 14 100 -1 170 2 177 9 18 15 147 30 263 32 127 1 123 0 118 20 -3 12 1 16
19 15 13 -1 29 3 37 9 12 9 13 8 6 -4 -8 -13 -7 -13 8 -1 14 11 17 11 17 0 1
-10 4 -8 11 4 15 26 63 22 83 -8 18 -27 41 -33 49 -12 4 9 8 9 15 -2 8 -10 31
-12 107 -8 84 4 97 3 101 -12 11 -35 38 -91 96 -199 l62 -113 40 2 c23 1 48
-1 56 -4 20 -9 158 -25 195 -23 27 1 32 6 45 48 8 26 19 50 24 55 5 5 6 0 3
-10 -4 -10 -10 -36 -13 -58 -10 -62 13 -47 33 21 10 33 22 60 27 60 4 0 5 -8
1 -18 -3 -9 -9 -39 -11 -67 l-5 -50 18 28 c22 34 32 35 25 2 -6 -36 15 -31 32
7 12 27 15 29 15 11 2 -45 -8 -53 -66 -53 -45 0 -82 -11 -207 -64 -83 -35
-162 -67 -176 -71 -14 -4 -65 -27 -115 -50 -49 -23 -209 -93 -355 -155 -146
-62 -269 -117 -275 -122 -6 -6 162 -8 423 -6 241 1 432 7 432 12 0 4 6 4 13
-2 17 -14 523 -16 532 -2 3 6 17 10 31 10 14 0 27 7 31 15 3 9 15 15 27 13 17
-2 21 2 19 24 -2 31 29 47 53 27 8 -6 17 -9 21 -5 3 3 0 6 -8 6 -12 1 -11 3 1
13 22 19 42 57 29 57 -5 0 -8 4 -4 9 5 10 37 7 55 -4 6 -3 13 1 16 9 3 9 11
13 17 9 6 -4 7 -1 2 7 -12 20 17 31 36 14 15 -13 16 -12 13 17 -2 18 -1 30 2
26 3 -3 14 3 25 14 20 20 55 25 79 9 22 -14 3 -25 -23 -13 -30 14 -57 -10 -29
-26 15 -9 15 -11 -7 -19 l-24 -9 31 -22 c21 -15 30 -17 26 -8 -3 9 0 14 9 14
18 -2 142 110 475 433 l264 254 -34 13 -33 12 41 -4 c34 -3 46 1 76 28 81 74
71 69 135 58 32 -5 92 -15 133 -22 54 -8 87 -20 118 -41 35 -25 61 -32 145
-43 56 -8 131 -18 167 -24 36 -6 157 -15 270 -21 113 -5 255 -17 315 -25 322
-42 924 -70 1175 -53 125 8 169 21 114 33 -58 13 -59 15 -27 35 43 26 95 105
98 147 2 36 17 53 46 53 14 0 29 19 29 36 0 2 -13 4 -30 4 -27 0 -30 3 -30 30
0 23 5 30 19 30 19 0 31 18 31 46 0 8 -10 14 -25 14 -23 0 -25 3 -25 50 l0 50
-49 0 -50 0 -3 -52 c-3 -52 -4 -53 -38 -58 -53 -8 -52 -36 0 -45 37 -6 41 -10
36 -29 -3 -11 -6 -24 -6 -28 0 -5 -16 -8 -35 -8 -31 0 -35 -3 -35 -25 0 -21 5
-25 29 -25 27 0 29 -3 32 -44 l4 -44 -50 -6 c-27 -3 -76 -6 -107 -6 -62 0 -75
13 -62 64 5 20 12 26 35 26 18 0 32 7 39 19 15 29 13 31 -25 31 -32 0 -35 2
-35 30 0 20 6 32 18 36 32 10 47 21 50 38 3 12 -4 16 -27 16 -28 0 -36 9 -32
34 1 5 -1 22 -4 37 -6 28 -9 29 -61 29 l-54 0 0 -50 c0 -49 -1 -50 -30 -50
-28 0 -30 -3 -30 -35 0 -32 2 -35 30 -35 17 0 30 -4 30 -9 0 -24 -14 -41 -35
-41 -36 0 -55 -10 -55 -30 0 -14 9 -20 36 -22 35 -3 36 -5 39 -45 l3 -43 -39
0 c-64 0 -44 -19 24 -22 59 -3 62 -4 65 -31 2 -15 7 -25 11 -22 5 2 17 -2 27
-11 17 -13 2 -14 -151 -10 -93 3 -183 7 -200 9 -16 2 -60 8 -97 12 -38 4 -68
9 -68 10 0 1 7 19 16 40 15 36 17 37 59 33 l45 -3 6 42 c3 23 4 77 0 120 -3
43 -6 104 -6 136 l0 57 -75 0 -74 0 -17 58 c-31 106 -69 162 -113 162 -43 0
-71 11 -71 28 0 14 -2 13 -13 -2 -11 -15 -23 -16 -95 -10 l-82 7 -1 61 c-2
201 2 631 7 744 5 107 10 134 23 142 14 8 14 10 -3 23 -18 13 -19 20 -10 73 9
56 11 59 43 65 18 4 73 5 122 3 l89 -4 0 110 c0 97 -2 109 -19 115 -10 3 -29
2 -42 -3 -13 -5 -94 -8 -179 -6 -85 2 -279 5 -430 8 -151 3 -296 8 -321 12
-34 5 -47 3 -50 -7z m-2386 -1089 l122 -1 -29 -25 c-21 -19 -26 -28 -17 -37
16 -16 14 -37 -4 -37 -8 0 -15 -3 -15 -7 0 -5 68 -8 150 -8 l150 0 0 53 c0 43
3 52 18 52 22 0 50 -47 47 -77 -1 -13 1 -23 4 -23 3 -1 50 -3 104 -6 l97 -4 1
37 c1 21 1 42 0 46 -1 4 6 10 15 14 11 4 28 -7 54 -35 47 -53 71 -56 60 -8 -8
38 0 46 50 46 30 0 56 -23 45 -40 -4 -6 18 -11 62 -12 l68 -2 -70 -5 -70 -5
70 -6 70 -6 -67 -2 c-103 -3 -87 -32 17 -32 58 0 65 7 65 66 l0 34 -73 0 c-59
0 -74 3 -74 15 0 17 9 19 22 6 6 -6 40 -11 78 -12 l67 -2 0 -54 c0 -29 4 -53
10 -53 5 0 9 3 9 8 -1 4 -1 27 0 51 1 49 12 46 30 -8 9 -27 8 -36 -1 -43 -9
-5 -5 -8 10 -8 13 0 30 -6 37 -14 12 -12 11 -15 -8 -20 -31 -8 -87 -7 -87 2 0
12 -884 17 -1137 5 -105 -4 -113 -3 -113 14 0 21 20 56 20 36 0 -10 33 -13
132 -13 72 0 128 3 124 8 -9 8 -14 8 -112 11 l-72 1 -4 40 c-2 22 1 40 5 40 5
0 3 8 -4 17 -12 15 -12 16 4 10 10 -4 73 -7 140 -7z m341 -49 c-3 -28 -11 -48
-15 -45 -5 3 -7 10 -4 15 4 5 -13 10 -37 11 l-43 1 45 7 c40 6 36 7 -30 8 -54
0 -69 -2 -52 -8 12 -5 22 -12 22 -15 0 -4 -10 -3 -22 0 -16 5 -20 4 -13 -3 6
-6 35 -13 65 -15 35 -2 20 -4 -42 -5 -54 -1 -98 0 -98 4 0 3 11 22 25 42 l25
37 -22 6 c-13 3 24 6 81 7 58 2 107 5 110 7 10 11 12 -5 5 -54z m-3186 32
c-20 -5 -24 -18 -9 -28 5 -3 13 -1 16 5 5 8 11 7 21 -1 11 -9 14 -8 14 2 1 9
5 8 15 -5 15 -19 15 -19 15 1 0 16 -7 23 -27 26 -27 4 -27 4 3 6 21 0 34 -5
38 -15 10 -26 7 -269 -3 -259 -5 6 -11 19 -14 30 -3 11 -5 -11 -6 -49 0 -38
-3 -67 -6 -64 -8 8 -18 115 -17 185 1 34 -3 65 -8 68 -6 4 -10 -29 -11 -82 0
-54 -3 -80 -8 -68 -5 11 -7 46 -5 77 1 32 -2 60 -7 63 -5 4 -9 -42 -10 -112
l-1 -118 -13 70 c-12 69 -12 69 -14 23 0 -27 -5 -48 -11 -48 -5 0 -9 3 -9 8 5
29 -2 39 -27 34 -16 -3 -23 -9 -20 -18 3 -7 1 -16 -4 -19 -13 -8 -20 25 -19
86 1 69 0 79 -11 54 -6 -14 -9 2 -9 50 0 48 3 64 9 50 6 -14 9 -15 10 -5 0 12
3 12 14 -3 12 -15 14 -16 20 -2 3 8 1 26 -4 40 l-10 25 63 -1 c34 -1 54 -3 45
-6z m2074 -319 c98 -4 151 -10 157 -18 12 -15 19 -261 8 -273 -9 -8 -558 -5
-567 3 -3 3 -6 66 -8 140 -3 96 0 139 9 150 10 12 34 14 133 9 67 -3 187 -8
268 -11z m3118 -44 c-8 -5 -27 -10 -42 -10 -22 0 -25 -3 -21 -22 3 -13 9 -27
14 -33 7 -9 39 -152 39 -175 0 -5 -4 -10 -9 -10 -4 0 -11 26 -14 58 -6 68 -37
135 -73 159 -24 15 -29 15 -53 2 -30 -17 -80 -102 -82 -139 -1 -17 -3 -20 -6
-7 -2 9 -10 17 -16 17 -7 0 -4 5 6 11 9 5 17 17 17 26 0 13 -14 15 -94 11 -92
-4 -95 -3 -101 19 -8 35 11 63 43 62 l27 -1 -27 -10 c-20 -7 -28 -17 -28 -34
0 -23 3 -25 43 -22 38 3 42 5 45 33 4 31 16 45 42 45 9 0 7 -5 -8 -16 -33 -23
-29 -54 7 -54 16 0 34 7 41 15 7 8 18 15 25 15 7 0 12 8 11 17 -2 30 60 52
149 52 55 1 75 -2 65 -9z m-2572 -15 c13 -5 18 -156 5 -154 -5 1 -33 1 -62 0
-43 -1 -52 -4 -43 -13 7 -7 12 -25 12 -40 0 -32 3 -31 -127 -30 -46 0 -83 -3
-83 -7 0 -17 32 -71 42 -71 6 0 8 13 6 29 -3 21 -1 28 9 24 7 -3 13 -13 13
-23 0 -11 5 -22 12 -26 8 -5 7 -9 -5 -13 -15 -6 -15 -9 -2 -34 13 -25 12 -27
-6 -27 -14 0 -19 7 -19 30 0 27 -3 30 -30 30 -29 0 -30 2 -30 45 0 41 -2 45
-25 45 l-25 0 0 110 c0 73 4 115 12 124 9 10 50 12 173 9 88 -2 166 -6 173 -8z
m3017 -115 c24 -6 26 -8 8 -9 -33 -2 -28 -18 7 -23 23 -4 30 -1 28 11 -2 12 4
15 22 14 151 -13 228 -22 245 -29 18 -8 17 -9 -10 -15 l-30 -7 33 -1 c32 -1
43 -15 20 -23 -7 -3 -47 -1 -88 3 -41 5 -95 11 -120 13 -25 3 -88 10 -140 15
-52 6 -98 11 -102 11 -18 0 -6 20 12 20 27 0 25 18 -2 23 -13 2 2 4 32 4 30 1
69 -3 85 -7z m609 -86 c20 -8 52 -61 61 -101 6 -28 4 -33 -12 -33 -11 0 -24
-5 -31 -12 -6 -6 -23 -12 -37 -14 -24 -2 -25 -1 -13 14 7 9 17 20 23 24 15 11
2 18 -22 12 -12 -3 -23 -14 -26 -25 -7 -25 -27 -25 -27 0 0 11 9 22 19 26 11
3 22 12 25 20 6 17 -10 30 -19 16 -3 -6 -12 -8 -20 -4 -10 3 -15 -1 -15 -15 0
-11 -7 -23 -17 -26 -14 -6 -14 -8 3 -20 15 -12 16 -16 5 -30 -21 -25 -27 -19
-26 22 1 45 31 116 45 107 6 -3 13 1 16 9 3 9 17 16 31 16 13 0 21 4 18 10 -7
12 -3 12 19 4z m-4830 -89 c9 -37 26 -30 26 11 0 31 2 34 15 20 8 -8 15 -19
15 -24 0 -5 7 -15 15 -22 13 -11 15 -7 15 25 l0 38 25 -29 c14 -16 25 -32 25
-36 0 -5 5 -8 10 -8 6 0 8 16 4 42 l-7 41 21 -21 c29 -29 37 -65 18 -81 -9 -8
-16 -19 -16 -27 0 -7 -4 -16 -10 -19 -6 -4 -7 6 -4 25 6 28 4 30 -22 30 -16 0
-24 -4 -18 -8 6 -4 13 -17 16 -29 4 -15 0 -23 -13 -26 -16 -4 -19 0 -19 28 0
27 -4 34 -24 37 -22 5 -24 2 -19 -27 3 -19 0 -35 -6 -39 -7 -5 -11 2 -11 18 0
24 -23 56 -40 56 -11 0 8 -58 21 -66 5 -3 9 -10 9 -16 0 -7 -4 -7 -13 0 -8 7
-18 7 -27 2 -8 -5 -18 -6 -22 -3 -5 2 -14 1 -21 -5 -15 -11 -47 -23 -47 -17 0
7 84 49 93 47 4 -1 7 -1 7 1 0 9 -44 114 -52 124 -6 8 1 7 20 -2 17 -9 33 -26
36 -40z m248 1 c2 -11 8 -21 15 -23 9 -3 10 7 6 34 -6 35 -5 37 11 23 10 -8
22 -24 27 -37 13 -36 32 -28 27 11 -4 40 5 38 27 -5 22 -42 37 -37 29 9 -7 34
-6 36 10 22 10 -8 22 -24 27 -37 12 -33 26 -28 21 7 -3 25 -1 29 12 24 9 -3
16 -14 16 -24 0 -10 7 -20 15 -24 12 -4 15 3 15 30 0 31 2 34 15 20 8 -8 15
-21 15 -29 0 -8 7 -17 15 -21 11 -4 15 2 15 24 0 22 4 28 15 24 8 -4 15 -14
15 -23 0 -9 5 -22 12 -29 9 -9 -5 -12 -65 -12 l-77 0 -2 -37 -1 -38 -4 38 c-4
32 -8 37 -30 37 -21 0 -24 -2 -13 -15 7 -8 9 -15 5 -15 -4 0 -2 -7 5 -15 10
-13 9 -15 -9 -15 -17 0 -21 6 -21 30 0 25 -4 30 -25 30 -22 0 -24 -2 -14 -19
7 -11 9 -26 4 -37 -7 -18 -8 -18 -12 -1 -3 9 -13 17 -24 17 -10 0 -19 6 -19
14 0 8 -4 17 -9 21 -5 3 -9 -8 -9 -25 1 -17 -2 -33 -5 -37 -4 -3 -7 10 -7 30
0 35 -2 37 -32 37 -31 0 -33 2 -35 40 -2 37 -1 39 17 28 10 -7 20 -21 22 -32z
m4083 24 c121 -15 220 -38 180 -40 l-30 -2 29 -7 c16 -3 31 -12 34 -19 4 -14
-6 -14 -183 8 -44 6 -116 14 -160 20 -97 11 -127 19 -119 32 3 5 15 6 27 2 15
-4 19 -3 12 4 -5 5 -19 13 -30 16 -31 8 139 -1 240 -14z"/>
<path d="M9010 2611 c0 -5 -27 -19 -60 -31 -44 -16 -60 -27 -60 -41 0 -16 8
-19 55 -19 30 0 55 -3 55 -8 0 -4 -20 -6 -44 -4 -36 3 -46 0 -60 -19 -16 -23
-16 -23 -16 -2 0 34 -27 46 -114 51 -127 7 -126 7 -126 -143 0 -119 1 -125 20
-125 27 0 69 -22 156 -81 39 -27 73 -49 77 -49 4 0 7 51 7 114 0 109 1 114 20
109 20 -5 28 -23 11 -23 -15 0 -23 -36 -16 -72 6 -30 12 -35 66 -53 50 -15 59
-22 57 -39 -2 -13 -12 -22 -26 -24 -12 -2 -20 -8 -17 -13 11 -17 34 -9 48 17
14 26 15 27 118 25 82 -2 113 -6 147 -23 32 -15 46 -18 55 -9 8 8 8 11 -1 11
-7 0 -12 5 -12 11 0 20 169 4 211 -19 24 -13 43 -17 64 -12 33 8 32 9 -5 16
-13 3 -29 9 -34 14 -7 7 16 10 63 10 58 0 79 -4 103 -21 22 -16 32 -19 41 -10
9 9 9 14 -2 20 -11 7 -6 13 18 25 25 13 31 23 31 49 -1 17 -8 50 -17 72 -8 22
-15 52 -15 68 1 30 -15 37 -25 11 -5 -13 -10 -9 -24 17 -10 19 -18 40 -19 47
0 17 25 43 34 35 3 -4 6 1 6 11 0 10 -7 25 -16 33 -14 14 -25 15 -93 4 -42 -7
-81 -12 -86 -11 -27 6 -56 -1 -53 -12 6 -16 60 -30 72 -18 6 6 36 10 68 10 57
0 58 0 56 -28 -1 -15 12 -62 30 -104 26 -62 30 -82 22 -103 -13 -34 -82 -66
-120 -55 -15 4 -66 4 -113 -1 -48 -6 -100 -6 -118 -2 -18 5 -68 5 -112 0 -63
-6 -89 -5 -125 7 -25 9 -63 16 -84 16 l-38 0 2 58 3 57 157 -3 158 -3 -3 55
c-1 33 3 60 10 67 10 10 11 6 3 -21 -9 -33 -5 -54 9 -46 4 3 6 -8 5 -25 -2
-35 23 -41 28 -6 2 14 10 22 23 22 13 0 21 -8 23 -22 3 -17 10 -23 28 -23 25
0 39 22 51 81 5 25 2 27 -33 32 -22 4 -57 10 -79 14 -39 7 -39 7 -11 12 16 3
31 12 34 20 3 10 0 12 -12 8 -9 -4 -25 -3 -37 1 -19 7 -19 9 -5 21 11 9 50 14
124 14 l107 0 -110 6 c-117 6 -148 4 -139 -10 9 -15 -50 -10 -74 7 -18 13 -50
14 -202 10 -99 -2 -178 -1 -175 4 2 4 25 13 50 19 25 6 43 16 40 21 -8 12 -35
13 -35 1z"/>
<path d="M10670 2180 c-102 -4 -327 -13 -500 -20 -173 -6 -316 -13 -317 -13
-1 -1 -3 -94 -4 -207 l-3 -206 -58 -2 c-52 -2 -58 -1 -58 18 0 17 -6 20 -45
20 -38 0 -45 -3 -45 -20 0 -18 -7 -20 -60 -20 -54 0 -60 2 -60 21 0 18 -5 20
-52 17 -45 -3 -53 -6 -53 -23 0 -18 -8 -20 -62 -23 -61 -3 -69 1 -64 31 0 4
-24 7 -55 7 -51 0 -56 -2 -51 -20 5 -19 0 -20 -109 -20 l-114 0 0 29 c0 17 -4
33 -10 36 -6 4 -10 -12 -10 -42 l0 -48 111 3 c70 2 116 -1 122 -7 21 -21 494
-8 619 16 38 8 50 7 70 -9 l23 -18 -36 0 c-47 0 -74 -27 -33 -32 28 -3 47 -28
22 -28 -8 0 -14 -9 -14 -20 0 -23 7 -25 24 -8 8 8 12 8 12 1 0 -30 -58 -39
-61 -9 -1 6 -5 -14 -10 -44 -4 -30 -4 -59 0 -63 5 -5 24 -4 42 1 l34 8 0 82
c-1 45 2 77 5 72 6 -9 337 -5 1288 16 258 6 323 10 248 16 -18 2 -25 7 -21 16
3 8 5 18 5 23 0 5 9 9 21 9 11 0 18 4 14 9 -3 5 -1 12 5 16 5 3 10 11 10 16 0
6 -5 7 -11 3 -8 -5 -10 0 -6 17 6 22 3 24 -31 25 -20 1 -65 3 -99 5 -61 4 -62
5 -68 37 -3 18 -10 30 -14 27 -12 -7 -21 19 -21 58 -1 18 -7 46 -15 62 -14 30
-14 30 -9 3 6 -26 -12 -58 -33 -58 -14 0 -32 -49 -20 -53 7 -2 7 -11 2 -23 -4
-10 -7 -28 -6 -40 2 -18 -4 -21 -46 -22 -26 -1 -69 -4 -95 -8 -51 -6 -92 2
-83 17 4 5 28 9 54 9 38 0 50 4 53 18 3 9 -1 69 -8 132 -8 63 -16 139 -20 168
l-5 52 -52 -2 c-29 -1 -135 -4 -237 -8z m35 -384 l-50 -11 0 -50 c0 -35 4 -49
13 -47 6 1 12 -2 12 -7 0 -9 -215 -19 -506 -24 l-161 -2 15 23 c8 12 15 37 16
55 l2 32 202 10 c111 6 202 7 202 2 0 -4 11 -4 26 -1 28 7 69 -24 85 -63 18
-49 34 -22 29 49 -1 24 3 28 37 33 21 4 43 8 48 10 6 2 26 3 45 3 32 0 30 -1
-15 -12z"/>
<path d="M8987 1653 c-12 -12 -8 -158 6 -176 8 -11 31 -17 77 -19 l65 -3 3
103 3 102 -74 0 c-41 0 -77 -3 -80 -7z"/>
</g>
</svg>
